PathFileType   4   (X/Y/Z)
DataRate	CameraRate	NumFrames	NumMarkers	Units	OrigDataRate	OrigDataStartFrame	OrigNumFrames
120.0	120.0	8	37	mm	120.0	1	186
Frame#	Time	midhip	hip_r	hip_l	knee_r	knee_l	ankle_r	ankle_l	midasis	asis_r	asis_l	psis_r	psis_l	epicondLat_r	epicondLat_l	epicondMed_r	epicondMed_l	malleolusLat_r	malleolusLat_l	malleolusMedv_r	malleolusMedv_l	neck	subclavicle_r	subclavicle_l	sternalnotch	xyphoidprocess	thighwand_r	thighwand_l	upperleg1_r	upperleg1_l	upperleg2_r	upperleg2_l	shankwand_r	shankwand_l	lowerleg1_r	lowerleg1_l	toe_r	toe_l
 	 	X1	Y1	Z1	X2	Y2	Z2	X3	Y3	Z3	X4	Y4	Z4	X5	Y5	Z5	X6	Y6	Z6	X7	Y7	Z7	X8	Y8	Z8	X9	Y9	Z9	X10	Y10	Z10	X11	Y11	Z11	X12	Y12	Z12	X13	Y13	Z13	X14	Y14	Z14	X15	Y15	Z15	X16	Y16	Z16	X17	Y17	Z17	X18	Y18	Z18	X19	Y19	Z19	X20	Y20	Z20	X21	Y21	Z21	X22	Y22	Z22	X23	Y23	Z23	X24	Y24	Z24	X25	Y25	Z25	X26	Y26	Z26	X27	Y27	Z27	X28	Y28	Z28	X29	Y29	Z29	X30	Y30	Z30	X31	Y31	Z31	X32	Y32	Z32	X33	Y33	Z33	X34	Y34	Z34	X35	Y35	Z35	X36	Y36	Z36	X37	Y37	Z37

	1	0.42500	1419.401	893.792	-298.827	1411.146	865.966	-231.386	1419.079	880.440	-380.907	1426.219	455.396	-211.527	1430.071	463.885	-357.825	1133.815	185.719	-197.186	1426.013	70.893	-311.063	1505.456	955.011	-293.434	1499.105	943.423	-173.731	1511.807	966.599	-413.137	1318.689	1001.864	-262.161	1326.712	1007.356	-347.558	1434.634	458.501	-153.718	1440.808	461.014	-414.750	1430.232	435.719	-261.362	1399.116	449.743	-313.205	1123.612	198.719	-160.759	1412.243	66.722	-347.313	1150.116	185.463	-225.207	1429.108	87.453	-285.828	1322.481	1426.162	-288.170	1446.001	1343.292	-234.456	1455.123	1343.739	-339.013	1433.623	1352.200	-285.162	1506.868	1184.354	-291.367	1478.281	553.105	-79.753	1570.376	542.119	-349.292	1492.390	616.091	-145.886	1509.234	597.156	-400.721	1496.475	528.836	-164.608	1484.898	512.328	-397.575	1231.360	284.805	-78.479	1446.640	194.906	-445.147	1202.830	260.292	-151.384	1422.905	165.062	-373.034	1135.738	61.216	-201.522	1550.901	39.692	-322.702
	2	0.43333	1422.543	893.396	-299.264	1414.459	865.929	-232.038	1422.508	880.207	-381.572	1436.640	455.587	-211.740	1431.657	463.773	-358.223	1142.673	188.776	-197.087	1426.139	70.924	-311.151	1508.705	955.016	-294.124	1502.262	943.586	-174.426	1515.149	966.445	-413.822	1321.866	1001.538	-262.769	1329.997	1007.056	-347.991	1445.125	458.904	-153.954	1442.496	460.820	-415.125	1440.279	436.068	-261.904	1401.055	449.408	-314.190	1132.630	201.843	-160.640	1412.338	66.776	-347.390	1158.846	188.072	-224.937	1429.068	87.426	-286.283	1326.179	1426.177	-288.792	1449.681	1342.575	-234.972	1458.856	1343.437	-339.406	1437.321	1351.942	-285.648	1510.153	1183.716	-292.459	1487.388	553.770	-80.023	1572.364	541.537	-349.455	1500.856	616.831	-145.972	1511.972	596.717	-400.429	1505.760	529.409	-164.998	1487.442	512.378	-397.878	1240.986	286.850	-78.482	1447.163	194.652	-445.277	1212.402	262.518	-150.992	1423.064	164.787	-373.529	1142.419	63.994	-201.549	1550.959	39.650	-322.681
	3	0.44167	1426.179	893.461	-299.376	1417.775	865.861	-232.662	1425.871	879.971	-382.209	1446.997	455.891	-211.958	1433.221	463.658	-358.537	1151.573	191.731	-197.041	1426.262	70.907	-311.224	1511.922	955.008	-294.813	1505.443	943.716	-175.136	1518.400	966.300	-414.490	1325.008	1001.205	-263.314	1333.235	1006.719	-348.340	1455.570	459.419	-154.198	1444.153	460.617	-415.416	1449.139	436.952	-262.935	1403.415	448.547	-315.123	1141.680	204.854	-160.573	1412.430	66.787	-347.455	1167.468	191.010	-224.802	1428.760	87.207	-286.446	1330.174	1426.234	-289.390	1453.078	1342.313	-235.388	1462.316	1342.865	-339.703	1440.946	1351.682	-286.122	1512.841	1183.027	-292.372	1496.510	554.565	-80.273	1574.352	540.992	-349.564	1508.523	617.877	-146.055	1514.174	596.331	-400.439	1514.420	530.019	-166.011	1489.965	512.205	-398.278	1250.692	288.920	-78.505	1447.678	194.356	-445.359	1222.171	264.621	-150.944	1423.450	164.507	-373.558	1150.275	66.791	-201.460	1551.001	39.618	-322.672
	4	0.45000	1429.218	893.006	-299.443	1421.124	865.773	-233.248	1429.199	879.735	-382.810	1457.273	456.321	-212.185	1434.768	463.561	-358.771	1160.507	194.530	-197.043	1426.365	70.842	-311.280	1515.132	954.999	-295.493	1508.673	943.832	-175.857	1521.592	966.167	-415.130	1328.131	1000.874	-263.809	1336.419	1006.363	-348.657	1465.950	460.057	-154.452	1445.778	460.424	-415.630	1459.901	437.046	-263.373	1404.730	448.590	-315.496	1150.747	207.704	-160.557	1412.513	66.757	-347.508	1176.403	194.297	-224.680	1428.911	86.975	-286.311	1333.982	1425.957	-289.971	1456.452	1342.186	-235.591	1466.100	1342.466	-340.168	1444.499	1351.446	-286.582	1516.293	1182.703	-292.100	1505.626	555.504	-80.517	1576.340	540.461	-349.637	1516.513	619.046	-146.576	1516.296	595.878	-400.656	1523.844	531.057	-166.607	1491.682	511.830	-398.531	1260.451	291.018	-78.564	1448.206	194.032	-445.402	1231.828	266.818	-150.944	1424.150	164.469	-373.295	1159.414	69.540	-201.204	1551.022	39.601	-322.674
	5	0.45833	1431.788	892.154	-299.704	1424.500	865.686	-233.791	1432.505	879.502	-383.370	1467.440	456.887	-212.422	1436.304	463.493	-358.944	1169.524	197.096	-197.086	1426.447	70.738	-311.316	1518.345	954.997	-296.160	1511.945	943.951	-176.579	1524.745	966.043	-415.742	1331.251	1000.560	-264.268	1339.548	1006.008	-348.992	1476.240	460.828	-154.722	1447.371	460.257	-415.786	1473.140	436.074	-263.068	1405.396	450.081	-314.839	1159.868	210.323	-160.592	1412.588	66.692	-347.546	1185.709	197.526	-224.738	1428.989	86.816	-286.065	1337.646	1425.454	-290.908	1459.799	1342.044	-235.995	1469.923	1342.195	-340.711	1447.982	1351.270	-287.043	1520.102	1182.562	-292.115	1514.715	556.597	-80.769	1578.325	539.925	-349.698	1524.754	620.086	-147.343	1518.889	595.798	-401.011	1534.180	532.391	-166.544	1492.947	511.286	-398.327	1270.252	293.123	-78.676	1448.760	193.700	-445.416	1241.351	269.564	-150.657	1424.615	164.589	-373.179	1169.906	72.168	-200.761	1551.021	39.602	-322.685
	6	0.46667	1434.662	891.633	-300.146	1427.879	865.619	-234.293	1435.786	879.275	-383.893	1477.479	457.603	-212.666	1437.833	463.462	-359.082	1178.702	199.340	-197.170	1426.528	70.607	-311.324	1521.553	955.003	-296.814	1515.236	944.093	-177.293	1527.871	965.914	-416.335	1334.377	1000.278	-264.713	1342.628	1005.681	-349.376	1486.424	461.747	-155.003	1448.941	460.126	-415.911	1486.793	436.101	-263.732	1406.911	451.253	-313.845	1169.109	212.627	-160.682	1412.673	66.601	-347.559	1195.334	200.312	-224.844	1428.857	86.732	-285.867	1341.148	1425.327	-291.950	1462.955	1342.071	-236.477	1473.467	1342.073	-341.192	1451.422	1351.152	-287.529	1523.448	1182.504	-292.167	1523.759	557.854	-81.036	1580.300	539.379	-349.763	1532.644	621.492	-147.688	1521.108	595.795	-401.614	1544.562	533.973	-166.820	1494.556	510.926	-398.055	1280.088	295.182	-78.855	1449.346	193.387	-445.409	1251.085	272.364	-150.540	1424.893	164.704	-373.270	1181.743	74.607	-200.138	1550.998	39.621	-322.695
	7	0.47500	1437.730	891.337	-300.766	1431.232	865.591	-234.756	1439.020	879.056	-384.379	1487.401	458.478	-212.913	1439.368	463.462	-359.207	1188.125	201.178	-197.310	1426.637	70.463	-311.291	1524.740	955.021	-297.461	1518.522	944.271	-177.999	1530.959	965.771	-416.922	1337.507	1000.042	-265.166	1345.668	1005.402	-349.816	1496.501	462.826	-155.289	1450.504	460.030	-416.025	1498.258	436.614	-264.083	1408.674	451.096	-314.419	1178.545	214.531	-160.842	1412.790	66.493	-347.533	1204.832	202.673	-225.091	1428.881	86.601	-285.684	1344.524	1425.583	-292.641	1466.203	1342.070	-236.916	1476.936	1342.131	-341.402	1454.833	1351.061	-288.026	1526.618	1182.467	-292.476	1532.734	559.278	-81.314	1582.265	538.830	-349.838	1540.439	622.944	-148.096	1522.946	595.272	-402.222	1554.084	535.607	-167.206	1496.593	510.840	-398.535	1289.971	297.124	-79.105	1449.967	193.114	-445.386	1260.940	274.573	-151.267	1425.190	164.761	-373.408	1194.838	76.801	-199.338	1550.962	39.657	-322.703
	8	0.48333	1441.041	891.316	-301.460	1434.534	865.616	-235.183	1442.189	878.848	-384.834	1497.220	459.519	-213.161	1440.919	463.483	-359.332	1197.886	202.531	-197.526	1426.800	70.311	-311.205	1527.891	955.051	-298.106	1521.783	944.492	-178.694	1534.000	965.609	-417.518	1340.625	999.862	-265.637	1348.686	1005.184	-350.306	1506.475	464.070	-155.577	1452.076	459.961	-416.140	1506.531	436.511	-262.535	1410.065	450.368	-316.161	1188.267	215.951	-161.093	1412.958	66.371	-347.452	1214.502	204.618	-225.382	1428.933	86.514	-285.472	1348.145	1425.835	-293.037	1469.572	1341.985	-237.502	1480.202	1342.109	-341.790	1458.191	1350.984	-288.498	1529.495	1182.266	-293.148	1541.612	560.861	-81.590	1584.216	538.283	-349.926	1548.364	624.112	-148.986	1524.993	594.777	-402.410	1562.362	537.215	-167.117	1498.580	510.653	-399.416	1299.926	298.856	-79.424	1450.624	192.889	-445.354	1270.606	276.729	-152.131	1425.495	164.647	-373.533	1209.035	78.702	-198.365	1550.920	39.702	-322.707
